<?xml version="1.0" standalone="no"?>
<!DOCTYPE svg PUBLIC "-//W3C//DTD SVG 20010904//EN"
 "http://www.w3.org/TR/2001/REC-SVG-20010904/DTD/svg10.dtd">
<svg version="1.0" xmlns="http://www.w3.org/2000/svg"
 width="229.000000pt" height="220.000000pt" viewBox="0 0 229.000000 220.000000"
 preserveAspectRatio="xMidYMid meet">

<g transform="translate(0.000000,220.000000) scale(0.100000,-0.100000)"
fill="#000000" stroke="none">
<path d="M2015 2135 c-333 -44 -664 -247 -883 -543 -44 -59 -49 -63 -77 -56
-146 36 -296 -68 -503 -348 -65 -87 -82 -118 -67 -118 3 0 42 32 88 71 148
129 289 219 343 219 45 0 47 -23 7 -101 -21 -41 -45 -94 -53 -118 -12 -38 -12
-45 1 -55 8 -6 36 -34 63 -63 l48 -52 -108 -105 -109 -105 28 -28 27 -28 108
108 c104 104 109 107 125 89 24 -26 21 -44 -14 -113 -38 -77 -92 -136 -194
-212 -44 -33 -115 -94 -158 -136 l-79 -76 57 90 c32 50 73 111 92 137 19 27
32 48 29 48 -3 0 -57 -44 -121 -99 -165 -142 -362 -301 -367 -296 -2 2 -40
-32 -84 -77 l-79 -81 55 39 c82 57 180 135 317 251 67 57 124 103 128 103 7 0
-10 -27 -96 -155 -36 -55 -81 -125 -99 -155 -32 -55 -31 -54 82 56 62 61 165
152 229 202 164 129 273 254 335 385 l18 37 35 -34 36 -35 113 51 c105 47 115
49 130 34 15 -15 15 -19 -1 -62 -23 -63 -89 -159 -197 -287 -51 -60 -89 -111
-86 -114 6 -7 170 108 258 181 83 69 164 165 194 231 25 53 32 132 14 165 -8
16 0 25 55 64 132 95 294 267 387 412 114 178 193 440 186 616 l-3 73 -55 1
c-30 1 -100 -4 -155 -11z m170 -15 c9 -15 -29 -26 -155 -44 -163 -22 -272 -29
-240 -16 105 46 378 87 395 60z m-296 -310 l203 -211 -47 -82 c-139 -240 -356
-442 -639 -597 l-78 -43 -84 84 -84 84 100 100 101 101 -26 24 -26 24 -100
-99 -101 -100 -79 85 c-43 46 -79 87 -79 90 0 17 118 208 180 292 81 109 233
261 330 330 59 42 207 128 221 128 3 0 96 -95 208 -210z m-875 -657 l72 -76
-44 -40 -43 -41 -60 60 -60 60 25 57 c14 31 28 57 31 57 4 0 39 -34 79 -77z
m206 -208 c41 -41 72 -76 69 -79 -2 -2 -28 -14 -57 -26 l-54 -23 -61 61 -61
62 39 40 c21 22 42 40 45 40 3 0 39 -34 80 -75z"/>
<path d="M1569 1707 c-58 -22 -96 -54 -119 -103 -56 -115 19 -244 142 -244
154 0 249 177 157 294 -41 52 -119 75 -180 53z m131 -46 c114 -80 40 -271
-105 -271 -108 0 -169 112 -113 211 46 82 147 110 218 60z"/>
<path d="M1554 1641 c-46 -28 -64 -59 -64 -111 0 -135 164 -158 229 -33 51 99
-68 203 -165 144z m121 -36 c17 -16 25 -35 25 -57 0 -98 -133 -140 -176 -56
-45 86 83 182 151 113z"/>
<path d="M784 956 c-83 -61 -180 -165 -252 -271 -105 -155 -207 -254 -349
-341 -32 -20 -47 -33 -33 -29 44 12 186 82 241 119 55 37 73 34 46 -7 -8 -12
-42 -55 -76 -94 -33 -40 -61 -76 -61 -80 0 -13 180 170 241 245 33 41 69 92
80 114 l21 40 -59 -44 c-66 -52 -198 -138 -209 -138 -4 0 12 17 36 37 74 63
136 132 232 258 51 66 118 146 150 178 32 31 57 57 54 57 -2 0 -30 -20 -62
-44z"/>
</g>
</svg>
